<?xml version="1.0" encoding="UTF-8"?>
<svg version="1.1" xmlns="http://www.w3.org/2000/svg" width="90" height="88">
<path d="M0,0 L90,0 L90,88 L0,88 Z " fill="#F3F2F5" transform="translate(0,0)"/>
<path d="M0,0 L11,0 L11,1 L13,1 L13,2 L15,2 L15,3 L17,3 L17,4 L18,4 L18,5 L19,5 L19,6 L20,6 L20,7 L22,7 L22,9 L23,9 L23,10 L24,10 L24,12 L25,12 L25,13 L26,13 L26,16 L27,16 L27,18 L28,18 L28,25 L27,25 L27,28 L26,28 L26,31 L25,31 L25,33 L24,33 L24,35 L23,35 L23,36 L22,36 L22,37 L21,37 L21,38 L20,38 L20,39 L19,39 L19,40 L18,40 L18,41 L17,41 L17,42 L16,42 L16,43 L15,43 L15,44 L14,44 L14,45 L13,45 L13,46 L12,46 L12,47 L8,47 L8,46 L6,46 L6,45 L5,45 L5,43 L4,43 L4,40 L3,40 L3,43 L2,43 L2,41 L1,41 L1,44 L2,44 L2,51 L1,51 L1,54 L0,54 L0,57 L-1,57 L-1,59 L-2,59 L-2,61 L-4,61 L-4,59 L-5,59 L-5,57 L-6,57 L-6,58 L-7,58 L-7,60 L-8,60 L-8,61 L-9,61 L-9,62 L-10,62 L-10,63 L-11,63 L-11,64 L-12,64 L-12,65 L-13,65 L-13,66 L-14,66 L-14,67 L-15,67 L-15,68 L-16,68 L-16,69 L-17,69 L-17,70 L-18,70 L-18,71 L-19,71 L-19,72 L-20,72 L-20,73 L-21,73 L-21,75 L-22,75 L-22,77 L-21,77 L-21,79 L-22,79 L-22,80 L-24,80 L-24,81 L-26,81 L-26,82 L-28,82 L-28,83 L-38,83 L-38,82 L-40,82 L-40,81 L-42,81 L-42,80 L-44,80 L-44,79 L-45,79 L-45,78 L-46,78 L-46,77 L-47,77 L-47,76 L-48,76 L-48,74 L-49,74 L-49,73 L-50,73 L-50,72 L-51,72 L-51,71 L-53,71 L-53,69 L-54,69 L-54,63 L-55,63 L-55,55 L-54,55 L-54,53 L-53,53 L-53,50 L-51,50 L-51,49 L-50,49 L-50,46 L-49,46 L-49,45 L-48,45 L-48,44 L-47,44 L-47,43 L-46,43 L-46,42 L-45,42 L-45,41 L-44,41 L-44,40 L-43,40 L-43,39 L-42,39 L-42,38 L-41,38 L-41,37 L-40,37 L-40,36 L-35,36 L-35,37 L-34,37 L-34,38 L-33,38 L-33,39 L-32,39 L-32,44 L-34,44 L-34,45 L-35,45 L-35,46 L-36,46 L-36,47 L-37,47 L-37,48 L-38,48 L-38,49 L-39,49 L-39,50 L-40,50 L-40,51 L-41,51 L-41,52 L-42,52 L-42,54 L-43,54 L-43,55 L-44,55 L-44,57 L-45,57 L-45,58 L-46,58 L-46,57 L-47,57 L-47,56 L-48,56 L-48,57 L-49,57 L-49,58 L-50,58 L-50,63 L-49,63 L-49,60 L-47,60 L-47,61 L-46,61 L-46,68 L-45,68 L-45,70 L-44,70 L-44,71 L-43,71 L-43,72 L-41,72 L-41,73 L-39,73 L-39,74 L-32,74 L-32,73 L-30,73 L-30,72 L-28,72 L-28,71 L-26,71 L-26,70 L-25,70 L-25,69 L-24,69 L-24,68 L-23,68 L-23,67 L-22,67 L-22,66 L-21,66 L-21,65 L-20,65 L-20,64 L-19,64 L-19,63 L-18,63 L-18,62 L-17,62 L-17,61 L-16,61 L-16,60 L-15,60 L-15,59 L-14,59 L-14,58 L-13,58 L-13,57 L-12,57 L-12,59 L-13,59 L-13,60 L-14,60 L-14,61 L-15,61 L-15,62 L-16,62 L-16,63 L-17,63 L-17,64 L-18,64 L-18,65 L-19,65 L-19,68 L-18,68 L-18,67 L-17,67 L-17,66 L-16,66 L-16,65 L-15,65 L-15,64 L-14,64 L-14,63 L-13,63 L-13,62 L-12,62 L-12,61 L-11,61 L-11,60 L-10,60 L-10,59 L-9,59 L-9,58 L-8,58 L-8,57 L-7,57 L-7,56 L-6,56 L-6,54 L-5,54 L-5,51 L-4,51 L-4,39 L-5,39 L-5,37 L-6,37 L-6,35 L-7,35 L-7,34 L-8,34 L-8,33 L-9,33 L-9,32 L-10,32 L-10,31 L-11,31 L-11,30 L-14,30 L-14,32 L-12,32 L-12,33 L-11,33 L-11,34 L-10,34 L-10,35 L-9,35 L-9,36 L-8,36 L-8,38 L-7,38 L-7,40 L-6,40 L-6,43 L-5,43 L-5,47 L-6,47 L-6,49 L-7,49 L-7,52 L-8,52 L-8,53 L-9,53 L-9,51 L-8,51 L-8,48 L-7,48 L-7,42 L-8,42 L-8,41 L-9,41 L-9,37 L-10,37 L-10,36 L-11,36 L-11,37 L-12,37 L-12,49 L-13,49 L-13,50 L-12,50 L-12,53 L-13,53 L-13,55 L-17,55 L-17,54 L-18,54 L-18,53 L-19,53 L-19,52 L-20,52 L-20,51 L-21,51 L-21,50 L-22,50 L-22,49 L-23,49 L-23,47 L-24,47 L-24,46 L-25,46 L-25,45 L-27,45 L-27,43 L-28,43 L-28,37 L-29,37 L-29,29 L-28,29 L-28,27 L-27,27 L-27,24 L-26,24 L-26,23 L-25,23 L-25,22 L-24,22 L-24,20 L-23,20 L-23,19 L-22,19 L-22,18 L-21,18 L-21,17 L-20,17 L-20,16 L-19,16 L-19,15 L-18,15 L-18,14 L-17,14 L-17,13 L-16,13 L-16,12 L-15,12 L-15,11 L-14,11 L-14,10 L-13,10 L-13,9 L-12,9 L-12,8 L-11,8 L-11,7 L-10,7 L-10,6 L-9,6 L-9,5 L-7,5 L-7,4 L-6,4 L-6,3 L-4,3 L-4,2 L-2,2 L-2,1 L0,1 Z " fill="#F1F1F3" transform="translate(60,3)"/>
<path d="M0,0 L3,0 L3,1 L5,1 L5,2 L6,2 L6,3 L7,3 L7,4 L8,4 L8,5 L9,5 L9,6 L10,6 L10,7 L11,7 L11,8 L12,8 L12,10 L13,10 L13,11 L14,11 L14,14 L15,14 L15,16 L16,16 L16,23 L15,23 L15,26 L14,26 L14,29 L13,29 L13,31 L12,31 L12,33 L10,33 L10,31 L9,31 L9,29 L8,29 L8,30 L7,30 L7,32 L6,32 L6,33 L5,33 L5,34 L4,34 L4,35 L3,35 L3,36 L2,36 L2,37 L1,37 L1,38 L0,38 L0,39 L-1,39 L-1,40 L-2,40 L-2,41 L-3,41 L-3,42 L-4,42 L-4,43 L-5,43 L-5,44 L-6,44 L-6,45 L-7,45 L-7,47 L-8,47 L-8,49 L-7,49 L-7,51 L-8,51 L-8,52 L-10,52 L-10,53 L-12,53 L-12,54 L-14,54 L-14,55 L-24,55 L-24,54 L-26,54 L-26,53 L-28,53 L-28,52 L-30,52 L-30,51 L-31,51 L-31,50 L-32,50 L-32,49 L-33,49 L-33,48 L-34,48 L-34,46 L-35,46 L-35,45 L-36,45 L-36,44 L-37,44 L-37,43 L-39,43 L-39,41 L-40,41 L-40,35 L-41,35 L-41,27 L-40,27 L-40,25 L-39,25 L-39,22 L-37,22 L-37,21 L-36,21 L-36,18 L-35,18 L-35,17 L-34,17 L-34,16 L-33,16 L-33,15 L-32,15 L-32,14 L-31,14 L-31,13 L-30,13 L-30,12 L-29,12 L-29,11 L-28,11 L-28,10 L-27,10 L-27,9 L-26,9 L-26,8 L-21,8 L-21,9 L-20,9 L-20,10 L-19,10 L-19,11 L-18,11 L-18,16 L-20,16 L-20,17 L-21,17 L-21,18 L-22,18 L-22,19 L-23,19 L-23,20 L-24,20 L-24,21 L-25,21 L-25,22 L-26,22 L-26,23 L-27,23 L-27,24 L-28,24 L-28,26 L-29,26 L-29,27 L-30,27 L-30,29 L-31,29 L-31,30 L-32,30 L-32,29 L-33,29 L-33,28 L-34,28 L-34,29 L-35,29 L-35,30 L-36,30 L-36,35 L-35,35 L-35,32 L-33,32 L-33,33 L-32,33 L-32,40 L-31,40 L-31,42 L-30,42 L-30,43 L-29,43 L-29,44 L-27,44 L-27,45 L-25,45 L-25,46 L-18,46 L-18,45 L-16,45 L-16,44 L-14,44 L-14,43 L-12,43 L-12,42 L-11,42 L-11,41 L-10,41 L-10,40 L-9,40 L-9,39 L-8,39 L-8,38 L-7,38 L-7,37 L-6,37 L-6,36 L-5,36 L-5,35 L-4,35 L-4,34 L-3,34 L-3,33 L-2,33 L-2,32 L-1,32 L-1,31 L0,31 L0,30 L1,30 L1,29 L2,29 L2,31 L1,31 L1,32 L0,32 L0,33 L-1,33 L-1,34 L-2,34 L-2,35 L-3,35 L-3,36 L-4,36 L-4,37 L-5,37 L-5,40 L-4,40 L-4,39 L-3,39 L-3,38 L-2,38 L-2,37 L-1,37 L-1,36 L0,36 L0,35 L1,35 L1,34 L2,34 L2,33 L3,33 L3,32 L4,32 L4,31 L5,31 L5,30 L6,30 L6,29 L7,29 L7,28 L8,28 L8,26 L9,26 L9,23 L10,23 L10,11 L9,11 L9,9 L8,9 L8,7 L7,7 L7,6 L6,6 L6,5 L5,5 L5,4 L4,4 L4,3 L3,3 L3,2 L0,2 L0,4 L2,4 L2,5 L3,5 L3,6 L4,6 L4,7 L5,7 L5,8 L6,8 L6,10 L7,10 L7,12 L8,12 L8,15 L9,15 L9,19 L8,19 L8,21 L7,21 L7,24 L6,24 L6,25 L5,25 L5,23 L6,23 L6,20 L7,20 L7,14 L6,14 L6,13 L5,13 L5,9 L4,9 L4,8 L3,8 L3,9 L2,9 L2,8 L1,8 L1,7 L0,7 L0,6 L-1,6 L-1,5 L-2,5 L-2,4 L-1,4 L-1,3 L-2,3 L-2,2 L-1,2 L-1,1 L0,1 Z " fill="#C7C7C7" transform="translate(46,31)"/>
<path d="M0,0 L1,0 L1,2 L2,2 L2,4 L3,4 L3,5 L2,5 L2,6 L1,6 L1,7 L0,7 L0,8 L-1,8 L-1,9 L-2,9 L-2,10 L-3,10 L-3,11 L-4,11 L-4,12 L-5,12 L-5,28 L-54,28 L-54,1 L-49,1 L-49,6 L-48,6 L-48,12 L-47,12 L-47,14 L-45,14 L-45,15 L-44,15 L-44,16 L-43,16 L-43,17 L-42,17 L-42,19 L-41,19 L-41,20 L-40,20 L-40,21 L-39,21 L-39,22 L-38,22 L-38,23 L-36,23 L-36,24 L-34,24 L-34,25 L-32,25 L-32,26 L-22,26 L-22,25 L-20,25 L-20,24 L-18,24 L-18,23 L-16,23 L-16,22 L-15,22 L-15,20 L-16,20 L-16,18 L-15,18 L-15,16 L-14,16 L-14,15 L-13,15 L-13,14 L-12,14 L-12,13 L-11,13 L-11,12 L-10,12 L-10,11 L-9,11 L-9,10 L-8,10 L-8,9 L-7,9 L-7,8 L-6,8 L-6,7 L-5,7 L-5,6 L-4,6 L-4,5 L-3,5 L-3,4 L-2,4 L-2,3 L-1,3 L-1,1 L0,1 Z " fill="#F0F0F5" transform="translate(54,60)"/>
<path d="M0,0 L10,0 L10,1 L12,1 L12,2 L14,2 L14,3 L15,3 L15,4 L16,4 L16,5 L17,5 L17,6 L18,6 L18,8 L19,8 L19,11 L20,11 L20,19 L19,19 L19,22 L18,22 L18,23 L17,23 L17,21 L18,21 L18,18 L19,18 L19,12 L18,12 L18,11 L17,11 L17,7 L16,7 L16,6 L15,6 L15,7 L13,7 L13,6 L12,6 L12,5 L4,5 L4,6 L2,6 L2,7 L0,7 L0,8 L-1,8 L-1,9 L-3,9 L-3,10 L-4,10 L-4,11 L-5,11 L-5,12 L-6,12 L-6,13 L-7,13 L-7,14 L-8,14 L-8,15 L-9,15 L-9,16 L-10,16 L-10,17 L-11,17 L-11,18 L-12,18 L-12,19 L-13,19 L-13,20 L-14,20 L-14,21 L-15,21 L-15,22 L-16,22 L-16,24 L-17,24 L-17,25 L-18,25 L-18,27 L-19,27 L-19,28 L-20,28 L-20,38 L-19,38 L-19,40 L-18,40 L-18,41 L-17,41 L-17,42 L-15,42 L-15,43 L-14,43 L-14,44 L-13,44 L-13,46 L-12,46 L-12,49 L-13,49 L-13,51 L-17,51 L-17,50 L-18,50 L-18,49 L-19,49 L-19,48 L-20,48 L-20,47 L-21,47 L-21,46 L-22,46 L-22,45 L-23,45 L-23,43 L-24,43 L-24,42 L-25,42 L-25,41 L-27,41 L-27,39 L-28,39 L-28,33 L-29,33 L-29,25 L-28,25 L-28,23 L-27,23 L-27,21 L-26,21 L-26,24 L-27,24 L-27,37 L-26,37 L-26,38 L-25,38 L-25,40 L-24,40 L-24,41 L-23,41 L-23,42 L-22,42 L-22,43 L-21,43 L-21,44 L-20,44 L-20,45 L-17,45 L-17,44 L-19,44 L-19,43 L-20,43 L-20,39 L-21,39 L-21,40 L-22,40 L-22,39 L-23,39 L-23,37 L-24,37 L-24,35 L-25,35 L-25,25 L-24,25 L-24,23 L-23,23 L-23,22 L-22,22 L-22,20 L-21,20 L-21,19 L-20,19 L-20,18 L-19,18 L-19,17 L-18,17 L-18,16 L-17,16 L-17,15 L-16,15 L-16,14 L-15,14 L-15,13 L-14,13 L-14,12 L-13,12 L-13,11 L-12,11 L-12,10 L-11,10 L-11,9 L-10,9 L-10,8 L-9,8 L-9,7 L-8,7 L-8,6 L-7,6 L-7,5 L-6,5 L-6,4 L-5,4 L-5,3 L-4,3 L-4,2 L-2,2 L-2,1 L0,1 Z " fill="#747474" transform="translate(60,7)"/>
<path d="M0,0 L3,0 L3,1 L5,1 L5,2 L6,2 L6,3 L7,3 L7,4 L8,4 L8,5 L9,5 L9,6 L10,6 L10,7 L11,7 L11,8 L12,8 L12,10 L13,10 L13,11 L14,11 L14,14 L15,14 L15,16 L16,16 L16,23 L15,23 L15,26 L14,26 L14,29 L13,29 L13,31 L12,31 L12,33 L10,33 L10,31 L9,31 L9,29 L8,29 L8,30 L7,30 L7,32 L6,32 L6,33 L5,33 L5,34 L4,34 L4,35 L3,35 L3,36 L2,36 L2,37 L1,37 L1,38 L0,38 L0,39 L-1,39 L-1,40 L-2,40 L-2,41 L-3,41 L-3,42 L-4,42 L-4,43 L-5,43 L-5,44 L-6,44 L-6,45 L-7,45 L-7,47 L-8,47 L-8,49 L-7,49 L-7,51 L-8,51 L-8,52 L-10,52 L-10,53 L-12,53 L-12,54 L-14,54 L-14,55 L-24,55 L-24,54 L-26,54 L-26,53 L-28,53 L-28,52 L-30,52 L-30,51 L-31,51 L-31,50 L-29,50 L-29,51 L-27,51 L-27,52 L-17,52 L-17,51 L-26,51 L-26,50 L-19,50 L-19,49 L-16,49 L-16,48 L-13,48 L-13,47 L-11,47 L-11,46 L-10,46 L-10,45 L-9,45 L-9,44 L-7,44 L-7,43 L-6,43 L-6,42 L-5,42 L-5,41 L-4,41 L-4,39 L-3,39 L-3,38 L-2,38 L-2,37 L-1,37 L-1,36 L0,36 L0,35 L1,35 L1,34 L2,34 L2,33 L3,33 L3,32 L4,32 L4,31 L5,31 L5,30 L6,30 L6,29 L7,29 L7,28 L8,28 L8,26 L9,26 L9,23 L10,23 L10,11 L9,11 L9,9 L8,9 L8,7 L7,7 L7,6 L6,6 L6,5 L5,5 L5,4 L4,4 L4,3 L3,3 L3,2 L0,2 L0,4 L2,4 L2,5 L3,5 L3,6 L4,6 L4,7 L5,7 L5,8 L6,8 L6,10 L7,10 L7,12 L8,12 L8,15 L9,15 L9,19 L8,19 L8,21 L7,21 L7,24 L6,24 L6,25 L5,25 L5,23 L6,23 L6,20 L7,20 L7,14 L6,14 L6,13 L5,13 L5,9 L4,9 L4,8 L3,8 L3,9 L2,9 L2,8 L1,8 L1,7 L0,7 L0,6 L-1,6 L-1,5 L-2,5 L-2,4 L-1,4 L-1,3 L-2,3 L-2,2 L-1,2 L-1,1 L0,1 Z " fill="#5A5A5A" transform="translate(46,31)"/>
<path d="M0,0 L31,0 L31,1 L30,1 L30,2 L29,2 L29,3 L28,3 L28,4 L27,4 L27,5 L26,5 L26,6 L25,6 L25,7 L24,7 L24,8 L23,8 L23,9 L22,9 L22,10 L21,10 L21,11 L20,11 L20,12 L18,12 L18,13 L16,13 L16,14 L14,14 L14,15 L7,15 L7,14 L5,14 L5,13 L3,13 L3,12 L2,12 L2,11 L1,11 L1,9 L0,9 Z " fill="#F4F4F8" transform="translate(14,62)"/>
<path d="M0,0 L11,0 L11,1 L13,1 L13,2 L15,2 L15,3 L17,3 L17,4 L18,4 L18,5 L19,5 L19,6 L20,6 L20,7 L22,7 L22,9 L23,9 L23,10 L24,10 L24,12 L25,12 L25,13 L26,13 L26,16 L27,16 L27,18 L28,18 L28,25 L27,25 L27,28 L26,28 L26,31 L25,31 L25,33 L24,33 L24,35 L23,35 L23,36 L22,36 L22,37 L21,37 L21,38 L20,38 L20,39 L19,39 L19,40 L18,40 L18,41 L17,41 L17,42 L16,42 L16,43 L15,43 L15,44 L14,44 L14,45 L13,45 L13,46 L12,46 L12,47 L8,47 L8,46 L6,46 L6,45 L5,45 L5,43 L4,43 L4,40 L5,40 L5,39 L6,39 L6,38 L7,38 L7,37 L8,37 L8,36 L9,36 L9,35 L10,35 L10,34 L11,34 L11,33 L12,33 L12,32 L13,32 L13,31 L14,31 L14,33 L13,33 L13,34 L12,34 L12,35 L11,35 L11,36 L10,36 L10,37 L9,37 L9,38 L8,38 L8,39 L7,39 L7,40 L6,40 L6,42 L8,42 L8,41 L10,41 L10,40 L11,40 L11,39 L12,39 L12,37 L13,37 L13,36 L14,36 L14,35 L15,35 L15,34 L16,34 L16,33 L17,33 L17,32 L18,32 L18,31 L19,31 L19,30 L20,30 L20,28 L21,28 L21,25 L22,25 L22,13 L21,13 L21,11 L20,11 L20,9 L19,9 L19,7 L18,7 L18,6 L17,6 L17,5 L15,5 L15,4 L14,4 L14,3 L12,3 L12,2 L-1,2 L-1,3 L-3,3 L-3,4 L-5,4 L-5,5 L-7,5 L-7,4 L-6,4 L-6,3 L-4,3 L-4,2 L-2,2 L-2,1 L0,1 Z " fill="#7B7B7B" transform="translate(60,3)"/>
<path d="M0,0 L1,0 L1,2 L2,2 L2,4 L3,4 L3,5 L2,5 L2,6 L1,6 L1,7 L0,7 L0,8 L-1,8 L-1,9 L-2,9 L-2,10 L-3,10 L-3,11 L-4,11 L-4,12 L-5,12 L-5,28 L-18,28 L-18,27 L-17,27 L-17,26 L-16,26 L-16,25 L-20,25 L-20,24 L-18,24 L-18,23 L-16,23 L-16,22 L-15,22 L-15,20 L-16,20 L-16,18 L-15,18 L-15,16 L-14,16 L-14,15 L-13,15 L-13,14 L-12,14 L-12,13 L-11,13 L-11,12 L-10,12 L-10,11 L-9,11 L-9,10 L-8,10 L-8,9 L-7,9 L-7,8 L-6,8 L-6,7 L-5,7 L-5,6 L-4,6 L-4,5 L-3,5 L-3,4 L-2,4 L-2,3 L-1,3 L-1,1 L0,1 Z " fill="#EFEFF4" transform="translate(54,60)"/>
<path d="M0,0 L10,0 L10,1 L12,1 L12,2 L14,2 L14,3 L15,3 L15,4 L16,4 L16,5 L17,5 L17,6 L18,6 L18,8 L19,8 L19,11 L20,11 L20,19 L19,19 L19,22 L18,22 L18,23 L17,23 L17,21 L18,21 L18,18 L19,18 L19,12 L18,12 L18,11 L17,11 L17,7 L16,7 L16,6 L15,6 L15,7 L13,7 L13,6 L14,6 L14,5 L13,5 L13,4 L11,4 L11,3 L0,3 L0,4 L-2,4 L-2,5 L-3,5 L-3,8 L-4,8 L-4,9 L-5,9 L-5,10 L-6,10 L-6,11 L-7,11 L-7,12 L-8,12 L-8,13 L-9,13 L-9,14 L-10,14 L-10,15 L-11,15 L-11,16 L-12,16 L-12,17 L-13,17 L-13,18 L-14,18 L-14,19 L-15,19 L-15,20 L-16,20 L-16,21 L-17,21 L-17,22 L-20,22 L-20,23 L-21,23 L-21,24 L-22,24 L-22,20 L-21,20 L-21,19 L-20,19 L-20,18 L-19,18 L-19,17 L-18,17 L-18,16 L-17,16 L-17,15 L-16,15 L-16,14 L-15,14 L-15,13 L-14,13 L-14,12 L-13,12 L-13,11 L-12,11 L-12,10 L-11,10 L-11,9 L-10,9 L-10,8 L-9,8 L-9,7 L-8,7 L-8,6 L-7,6 L-7,5 L-6,5 L-6,4 L-5,4 L-5,3 L-4,3 L-4,2 L-2,2 L-2,1 L0,1 Z " fill="#6E6E6E" transform="translate(60,7)"/>
<path d="M0,0 L2,0 L2,2 L1,2 L1,3 L0,3 L0,4 L-1,4 L-1,5 L-2,5 L-2,6 L-3,6 L-3,7 L-4,7 L-4,8 L-5,8 L-5,9 L-6,9 L-6,10 L-7,10 L-7,11 L-8,11 L-8,12 L-9,12 L-9,13 L-10,13 L-10,14 L-11,14 L-11,16 L-10,16 L-10,15 L-9,15 L-9,14 L-6,14 L-6,13 L-5,13 L-5,12 L-4,12 L-4,11 L-3,11 L-3,10 L-2,10 L-2,9 L-1,9 L-1,8 L0,8 L0,7 L1,7 L1,6 L2,6 L2,3 L4,3 L4,2 L3,2 L3,0 L4,0 L4,1 L5,1 L5,6 L3,6 L3,7 L2,7 L2,8 L1,8 L1,9 L0,9 L0,10 L-1,10 L-1,11 L-2,11 L-2,12 L-3,12 L-3,13 L-4,13 L-4,14 L-5,14 L-5,16 L-6,16 L-6,17 L-7,17 L-7,19 L-8,19 L-8,20 L-9,20 L-9,19 L-10,19 L-10,18 L-11,18 L-11,19 L-12,19 L-12,20 L-13,20 L-13,25 L-12,25 L-12,22 L-10,22 L-10,23 L-9,23 L-9,30 L-8,30 L-8,32 L-7,32 L-7,33 L-6,33 L-6,34 L-4,34 L-4,35 L-2,35 L-2,36 L5,36 L5,35 L7,35 L7,34 L9,34 L9,33 L11,33 L11,34 L10,34 L10,35 L8,35 L8,36 L6,36 L6,37 L4,37 L4,38 L-1,38 L-1,37 L-3,37 L-3,36 L-7,36 L-7,35 L-9,35 L-9,34 L-10,34 L-10,33 L-11,33 L-11,31 L-12,31 L-12,30 L-13,30 L-13,27 L-14,27 L-14,17 L-13,17 L-13,15 L-12,15 L-12,13 L-11,13 L-11,12 L-10,12 L-10,11 L-9,11 L-9,10 L-8,10 L-8,9 L-7,9 L-7,8 L-6,8 L-6,7 L-5,7 L-5,6 L-4,6 L-4,5 L-3,5 L-3,4 L-2,4 L-2,3 L-1,3 L-1,2 L0,2 Z " fill="#4D4D4D" transform="translate(23,41)"/>
<path d="M0,0 L4,0 L4,1 L3,1 L3,2 L4,2 L4,3 L3,3 L3,4 L2,4 L2,5 L1,5 L1,6 L0,6 L0,7 L-1,7 L-1,8 L-2,8 L-2,9 L-3,9 L-3,10 L-4,10 L-4,11 L-5,11 L-5,12 L-6,12 L-6,13 L-7,13 L-7,14 L-8,14 L-8,15 L-9,15 L-9,16 L-10,16 L-10,17 L-11,17 L-11,18 L-12,18 L-12,19 L-13,19 L-13,21 L-14,21 L-14,22 L-15,22 L-15,24 L-16,24 L-16,34 L-15,34 L-15,36 L-14,36 L-14,38 L-13,38 L-13,39 L-12,39 L-12,38 L-11,38 L-11,42 L-10,42 L-10,43 L-8,43 L-8,44 L-11,44 L-11,43 L-12,43 L-12,42 L-13,42 L-13,41 L-14,41 L-14,40 L-15,40 L-15,39 L-16,39 L-16,37 L-17,37 L-17,36 L-18,36 L-18,23 L-17,23 L-17,20 L-18,20 L-18,19 L-17,19 L-17,18 L-16,18 L-16,17 L-15,17 L-15,15 L-14,15 L-14,14 L-13,14 L-13,13 L-12,13 L-12,12 L-11,12 L-11,11 L-10,11 L-10,10 L-9,10 L-9,9 L-8,9 L-8,8 L-7,8 L-7,7 L-6,7 L-6,6 L-5,6 L-5,5 L-4,5 L-4,4 L-3,4 L-3,3 L-2,3 L-2,2 L-1,2 L-1,1 L0,1 Z " fill="#C5C5C5" transform="translate(51,8)"/>
<path d="M0,0 L5,0 L5,1 L6,1 L6,4 L7,4 L7,5 L5,5 L5,8 L4,8 L4,9 L3,9 L3,10 L2,10 L2,11 L1,11 L1,12 L0,12 L0,13 L-1,13 L-1,14 L-2,14 L-2,15 L-3,15 L-3,16 L-6,16 L-6,17 L-7,17 L-7,18 L-8,18 L-8,16 L-7,16 L-7,15 L-6,15 L-6,14 L-5,14 L-5,13 L-4,13 L-4,12 L-3,12 L-3,11 L-2,11 L-2,10 L-1,10 L-1,9 L0,9 L0,8 L1,8 L1,7 L2,7 L2,6 L3,6 L3,5 L4,5 L4,4 L5,4 L5,2 L3,2 L3,1 L1,1 L1,2 L0,2 L0,3 L-1,3 L-1,4 L-2,4 L-2,5 L-3,5 L-3,6 L-4,6 L-4,7 L-5,7 L-5,8 L-6,8 L-6,9 L-7,9 L-7,10 L-8,10 L-8,13 L-9,13 L-9,14 L-10,14 L-10,15 L-11,15 L-11,16 L-12,16 L-12,18 L-13,18 L-13,31 L-12,31 L-12,32 L-11,32 L-11,33 L-10,33 L-10,35 L-9,35 L-9,36 L-8,36 L-8,37 L-7,37 L-7,38 L-6,38 L-6,39 L-4,39 L-4,40 L-2,40 L-2,41 L7,41 L7,42 L0,42 L0,43 L9,43 L9,44 L-1,44 L-1,43 L-3,43 L-3,42 L-6,42 L-6,41 L-7,41 L-7,40 L-8,40 L-8,38 L-9,38 L-9,37 L-10,37 L-10,36 L-11,36 L-11,35 L-13,35 L-13,33 L-14,33 L-14,27 L-15,27 L-15,19 L-14,19 L-14,17 L-13,17 L-13,14 L-11,14 L-11,13 L-10,13 L-10,10 L-9,10 L-9,9 L-8,9 L-8,8 L-7,8 L-7,7 L-6,7 L-6,6 L-5,6 L-5,5 L-4,5 L-4,4 L-3,4 L-3,3 L-2,3 L-2,2 L-1,2 L-1,1 L0,1 Z " fill="#999999" transform="translate(20,39)"/>
<path d="M0,0 L13,0 L13,1 L15,1 L15,2 L16,2 L16,3 L18,3 L18,4 L19,4 L19,5 L20,5 L20,7 L21,7 L21,9 L22,9 L22,11 L23,11 L23,23 L22,23 L22,26 L21,26 L21,28 L20,28 L20,29 L19,29 L19,30 L18,30 L18,31 L17,31 L17,32 L16,32 L16,33 L15,33 L15,34 L14,34 L14,35 L13,35 L13,37 L12,37 L12,38 L11,38 L11,39 L9,39 L9,40 L7,40 L7,38 L8,38 L8,37 L9,37 L9,36 L10,36 L10,35 L11,35 L11,34 L12,34 L12,33 L13,33 L13,32 L14,32 L14,31 L15,31 L15,28 L16,28 L16,27 L17,27 L17,24 L18,24 L18,25 L19,25 L19,24 L20,24 L20,21 L21,21 L21,13 L20,13 L20,10 L19,10 L19,8 L18,8 L18,7 L17,7 L17,6 L16,6 L16,5 L15,5 L15,4 L13,4 L13,3 L11,3 L11,2 L1,2 L1,3 L-1,3 L-1,4 L-3,4 L-3,5 L-5,5 L-5,4 L-4,4 L-4,2 L-2,2 L-2,1 L0,1 Z " fill="#EFEFEF" transform="translate(59,5)"/>
<path d="M0,0 L3,0 L3,1 L5,1 L5,2 L6,2 L6,3 L7,3 L7,4 L8,4 L8,5 L9,5 L9,6 L10,6 L10,7 L11,7 L11,8 L12,8 L12,10 L13,10 L13,11 L14,11 L14,14 L15,14 L15,16 L16,16 L16,23 L15,23 L15,26 L14,26 L14,27 L12,27 L12,15 L11,15 L11,20 L10,20 L10,11 L9,11 L9,9 L8,9 L8,7 L7,7 L7,6 L6,6 L6,5 L5,5 L5,4 L4,4 L4,3 L3,3 L3,2 L0,2 L0,4 L2,4 L2,5 L3,5 L3,6 L4,6 L4,7 L5,7 L5,8 L6,8 L6,10 L7,10 L7,12 L8,12 L8,15 L9,15 L9,19 L8,19 L8,21 L7,21 L7,24 L6,24 L6,25 L5,25 L5,23 L6,23 L6,20 L7,20 L7,14 L6,14 L6,13 L5,13 L5,9 L4,9 L4,8 L3,8 L3,9 L2,9 L2,8 L1,8 L1,7 L0,7 L0,6 L-1,6 L-1,5 L-2,5 L-2,4 L-1,4 L-1,3 L-2,3 L-2,2 L-1,2 L-1,1 L0,1 Z " fill="#787878" transform="translate(46,31)"/>
<path d="M0,0 L1,0 L1,3 L0,3 L0,16 L1,16 L1,17 L2,17 L2,19 L3,19 L3,20 L4,20 L4,21 L5,21 L5,22 L6,22 L6,23 L7,23 L7,24 L10,24 L10,23 L8,23 L8,22 L7,22 L7,18 L6,18 L6,19 L5,19 L5,18 L4,18 L4,16 L3,16 L3,15 L5,15 L5,16 L6,16 L6,17 L8,17 L8,19 L9,19 L9,20 L10,20 L10,21 L12,21 L12,22 L13,22 L13,23 L14,23 L14,25 L15,25 L15,28 L14,28 L14,30 L10,30 L10,29 L9,29 L9,28 L8,28 L8,27 L7,27 L7,26 L6,26 L6,25 L5,25 L5,24 L4,24 L4,22 L3,22 L3,21 L2,21 L2,20 L0,20 L0,18 L-1,18 L-1,12 L-2,12 L-2,4 L-1,4 L-1,2 L0,2 Z " fill="#808080" transform="translate(33,28)"/>
<path d="M0,0 L1,0 L1,2 L2,2 L2,4 L3,4 L3,5 L2,5 L2,6 L1,6 L1,7 L0,7 L0,8 L-1,8 L-1,9 L-2,9 L-2,10 L-3,10 L-3,11 L-4,11 L-4,12 L-5,12 L-5,13 L-6,13 L-6,14 L-7,14 L-7,15 L-8,15 L-8,16 L-9,16 L-9,17 L-10,17 L-10,18 L-11,18 L-11,19 L-12,19 L-12,20 L-13,20 L-13,21 L-14,21 L-14,22 L-15,22 L-15,20 L-16,20 L-16,18 L-15,18 L-15,16 L-14,16 L-14,15 L-13,15 L-13,14 L-12,14 L-12,13 L-11,13 L-11,12 L-10,12 L-10,11 L-9,11 L-9,10 L-8,10 L-8,9 L-7,9 L-7,8 L-6,8 L-6,7 L-5,7 L-5,6 L-4,6 L-4,5 L-3,5 L-3,4 L-2,4 L-2,3 L-1,3 L-1,1 L0,1 Z " fill="#C6C6C6" transform="translate(54,60)"/>
<path d="M0,0 L3,0 L3,1 L4,1 L4,2 L5,2 L5,3 L6,3 L6,4 L7,4 L7,5 L8,5 L8,7 L9,7 L9,9 L10,9 L10,21 L9,21 L9,24 L8,24 L8,26 L7,26 L7,27 L6,27 L6,28 L5,28 L5,29 L4,29 L4,30 L3,30 L3,31 L2,31 L2,32 L1,32 L1,33 L0,33 L0,34 L-1,34 L-1,35 L-2,35 L-2,36 L-3,36 L-3,37 L-4,37 L-4,38 L-5,38 L-5,35 L-4,35 L-4,34 L-3,34 L-3,33 L-2,33 L-2,32 L-1,32 L-1,31 L0,31 L0,30 L1,30 L1,29 L2,29 L2,26 L4,26 L4,22 L5,22 L5,23 L6,23 L6,22 L7,22 L7,19 L8,19 L8,17 L9,17 L9,13 L8,13 L8,10 L7,10 L7,8 L6,8 L6,6 L5,6 L5,5 L4,5 L4,4 L3,4 L3,3 L2,3 L2,2 L0,2 Z " fill="#CDCDCD" transform="translate(46,33)"/>
<path d="M0,0 L2,0 L2,1 L1,1 L1,2 L3,2 L3,1 L4,1 L4,2 L6,2 L6,4 L5,4 L5,5 L3,5 L3,6 L1,6 L1,7 L-1,7 L-1,8 L-11,8 L-11,7 L-13,7 L-13,6 L-15,6 L-15,5 L-17,5 L-17,4 L-18,4 L-18,3 L-16,3 L-16,4 L-14,4 L-14,5 L-4,5 L-4,4 L-13,4 L-13,3 L-6,3 L-6,2 L-3,2 L-3,1 L0,1 Z " fill="#313131" transform="translate(33,78)"/>
<path d="M0,0 L1,0 L1,2 L0,2 L0,4 L-1,4 L-1,5 L-2,5 L-2,6 L-3,6 L-3,7 L-4,7 L-4,8 L-5,8 L-5,9 L-6,9 L-6,10 L-7,10 L-7,11 L-8,11 L-8,12 L-9,12 L-9,13 L-10,13 L-10,14 L-9,14 L-9,15 L-7,15 L-7,17 L-11,17 L-11,16 L-13,16 L-13,15 L-14,15 L-14,13 L-15,13 L-15,10 L-14,10 L-14,9 L-13,9 L-13,8 L-12,8 L-12,7 L-11,7 L-11,6 L-10,6 L-10,5 L-9,5 L-9,4 L-8,4 L-8,3 L-7,3 L-7,2 L-6,2 L-6,1 L-5,1 L-5,3 L-6,3 L-6,4 L-7,4 L-7,5 L-8,5 L-8,6 L-9,6 L-9,7 L-10,7 L-10,8 L-11,8 L-11,9 L-12,9 L-12,10 L-13,10 L-13,12 L-11,12 L-11,11 L-9,11 L-9,10 L-8,10 L-8,9 L-7,9 L-7,7 L-6,7 L-6,6 L-5,6 L-5,5 L-4,5 L-4,4 L-3,4 L-3,3 L-2,3 L-2,2 L-1,2 L-1,1 L0,1 Z " fill="#4C4C4C" transform="translate(79,33)"/>
<path d="M0,0 L1,0 L1,2 L0,2 L0,4 L-1,4 L-1,5 L0,5 L0,6 L2,6 L2,7 L1,7 L1,8 L0,8 L0,9 L-1,9 L-1,10 L-2,10 L-2,11 L-3,11 L-3,12 L-4,12 L-4,13 L-5,13 L-5,14 L-6,14 L-6,15 L-7,15 L-7,16 L-8,16 L-8,17 L-9,17 L-9,16 L-11,16 L-11,15 L-12,15 L-12,14 L-11,14 L-11,13 L-10,13 L-10,12 L-9,12 L-9,11 L-8,11 L-8,10 L-7,10 L-7,9 L-6,9 L-6,8 L-5,8 L-5,7 L-4,7 L-4,6 L-3,6 L-3,5 L-2,5 L-2,3 L-1,3 L-1,1 L0,1 Z " fill="#BEBEBE" transform="translate(81,32)"/>
<path d="M0,0 L2,0 L2,3 L1,3 L1,4 L0,4 L0,5 L-1,5 L-1,6 L-2,6 L-2,7 L-3,7 L-3,8 L-4,8 L-4,9 L-5,9 L-5,10 L-6,10 L-6,11 L-7,11 L-7,12 L-8,12 L-8,13 L-9,13 L-9,14 L-10,14 L-10,16 L-11,16 L-11,18 L-12,18 L-12,21 L-13,21 L-13,26 L-14,26 L-14,17 L-13,17 L-13,15 L-12,15 L-12,14 L-11,14 L-11,13 L-10,13 L-10,12 L-9,12 L-9,9 L-8,9 L-8,8 L-7,8 L-7,7 L-6,7 L-6,6 L-5,6 L-5,5 L-4,5 L-4,4 L-3,4 L-3,3 L-2,3 L-2,2 L-1,2 L-1,1 L0,1 Z " fill="#E5E5E5" transform="translate(21,40)"/>
<path d="M0,0 L3,0 L3,2 L2,2 L2,3 L1,3 L1,4 L0,4 L0,5 L-1,5 L-1,6 L-2,6 L-2,7 L-3,7 L-3,8 L-4,8 L-4,9 L-5,9 L-5,10 L-6,10 L-6,11 L-7,11 L-7,12 L-8,12 L-8,13 L-9,13 L-9,14 L-10,14 L-10,15 L-11,15 L-11,16 L-14,16 L-14,17 L-15,17 L-15,18 L-16,18 L-16,16 L-15,16 L-15,15 L-14,15 L-14,14 L-13,14 L-13,13 L-12,13 L-12,12 L-11,12 L-11,11 L-10,11 L-10,10 L-9,10 L-9,9 L-8,9 L-8,8 L-7,8 L-7,7 L-6,7 L-6,6 L-5,6 L-5,5 L-4,5 L-4,4 L-3,4 L-3,3 L-2,3 L-2,2 L-1,2 L-1,1 L0,1 Z " fill="#B8B8B8" transform="translate(54,13)"/>
<path d="M0,0 L3,0 L3,1 L5,1 L5,2 L6,2 L6,3 L7,3 L7,4 L4,4 L4,3 L3,3 L3,2 L0,2 L0,4 L2,4 L2,5 L3,5 L3,6 L4,6 L4,7 L5,7 L5,8 L6,8 L6,10 L7,10 L7,12 L8,12 L8,15 L9,15 L9,19 L8,19 L8,21 L7,21 L7,24 L6,24 L6,25 L5,25 L5,23 L6,23 L6,20 L7,20 L7,14 L6,14 L6,13 L5,13 L5,9 L4,9 L4,8 L3,8 L3,9 L2,9 L2,8 L1,8 L1,7 L0,7 L0,6 L-1,6 L-1,5 L-2,5 L-2,4 L-1,4 L-1,3 L-2,3 L-2,2 L-1,2 L-1,1 L0,1 Z " fill="#848484" transform="translate(46,31)"/>
<path d="M0,0 L1,0 L1,2 L2,2 L2,5 L1,5 L1,7 L0,7 L0,8 L-1,8 L-1,9 L-2,9 L-2,10 L-3,10 L-3,11 L-4,11 L-4,12 L-5,12 L-5,13 L-6,13 L-6,14 L-7,14 L-7,16 L-8,16 L-8,17 L-9,17 L-9,18 L-11,18 L-11,19 L-13,19 L-13,17 L-12,17 L-12,16 L-11,16 L-11,15 L-10,15 L-10,14 L-9,14 L-9,13 L-8,13 L-8,12 L-7,12 L-7,11 L-6,11 L-6,10 L-5,10 L-5,7 L-4,7 L-4,6 L-3,6 L-3,3 L-2,3 L-2,4 L-1,4 L-1,3 L0,3 Z " fill="#E1E1E1" transform="translate(79,26)"/>
<path d="M0,0 L1,0 L1,8 L2,8 L2,9 L3,9 L3,10 L4,10 L4,12 L5,12 L5,13 L6,13 L6,14 L7,14 L7,15 L8,15 L8,16 L10,16 L10,17 L12,17 L12,18 L21,18 L21,19 L14,19 L14,20 L23,20 L23,21 L13,21 L13,20 L11,20 L11,19 L8,19 L8,18 L7,18 L7,17 L6,17 L6,15 L5,15 L5,14 L4,14 L4,13 L3,13 L3,12 L1,12 L1,10 L0,10 Z " fill="#7D7D7D" transform="translate(6,62)"/>
<path d="M0,0 L1,0 L1,3 L0,3 L0,5 L-1,5 L-1,15 L0,15 L0,17 L1,17 L1,19 L2,19 L2,20 L3,20 L3,19 L4,19 L4,23 L5,23 L5,24 L7,24 L7,25 L4,25 L4,24 L3,24 L3,23 L2,23 L2,22 L1,22 L1,21 L0,21 L0,20 L-1,20 L-1,18 L-2,18 L-2,17 L-3,17 L-3,4 L-2,4 L-2,2 L-1,2 L-1,1 L0,1 Z " fill="#E9E9E9" transform="translate(36,27)"/>
<path d="M0,0 L1,0 L1,13 L3,13 L3,15 L2,15 L2,17 L1,17 L1,19 L-2,19 L-2,18 L-3,18 L-3,17 L-2,17 L-2,15 L-1,15 L-1,13 L-2,13 L-2,14 L-3,14 L-3,12 L-2,12 L-2,9 L-1,9 L-1,6 L0,6 Z " fill="#575757" transform="translate(83,19)"/>
<path d="M0,0 L1,0 L1,12 L3,12 L3,14 L2,14 L2,16 L1,16 L1,18 L-1,18 L-1,16 L-2,16 L-2,14 L-3,14 L-3,11 L-2,11 L-2,8 L-1,8 L-1,5 L0,5 Z " fill="#5C5C5C" transform="translate(57,46)"/>
<path d="M0,0 L3,0 L3,1 L4,1 L4,2 L5,2 L5,3 L6,3 L6,4 L7,4 L7,5 L8,5 L8,7 L9,7 L9,9 L10,9 L10,21 L9,21 L9,22 L8,22 L8,17 L9,17 L9,13 L8,13 L8,10 L7,10 L7,8 L6,8 L6,6 L5,6 L5,5 L4,5 L4,4 L3,4 L3,3 L2,3 L2,2 L0,2 Z " fill="#F0F0F0" transform="translate(46,33)"/>
<path d="M0,0 L1,0 L1,1 L3,1 L3,3 L4,3 L4,4 L5,4 L5,5 L7,5 L7,6 L9,6 L9,7 L16,7 L16,6 L18,6 L18,5 L20,5 L20,4 L22,4 L22,5 L21,5 L21,6 L19,6 L19,7 L17,7 L17,8 L15,8 L15,9 L10,9 L10,8 L8,8 L8,7 L4,7 L4,6 L2,6 L2,5 L1,5 L1,4 L0,4 Z " fill="#848484" transform="translate(12,70)"/>
<path d="M0,0 L1,0 L1,1 L2,1 L2,2 L3,2 L3,1 L4,1 L4,2 L32,2 L32,3 L2,3 L2,5 L1,5 L1,4 L-1,4 L-1,7 L-2,7 L-2,2 L-1,2 L-1,1 L0,1 Z " fill="#E9E9EC" transform="translate(12,59)"/>
<path d="M0,0 L1,0 L1,4 L0,4 L0,5 L-1,5 L-1,6 L-2,6 L-2,7 L-3,7 L-3,8 L-4,8 L-4,9 L-5,9 L-5,10 L-6,10 L-6,11 L-7,11 L-7,12 L-10,12 L-10,13 L-11,13 L-11,14 L-12,14 L-12,12 L-11,12 L-11,11 L-10,11 L-10,10 L-9,10 L-9,9 L-8,9 L-8,8 L-7,8 L-7,7 L-6,7 L-6,6 L-5,6 L-5,5 L-4,5 L-4,4 L-3,4 L-3,3 L-2,3 L-2,2 L-1,2 L-1,1 L0,1 Z " fill="#C2C2C2" transform="translate(24,43)"/>
<path d="M0,0 L2,0 L2,2 L3,2 L3,3 L2,3 L2,4 L1,4 L1,5 L0,5 L0,6 L-1,6 L-1,7 L-2,7 L-2,8 L-3,8 L-3,9 L-4,9 L-4,10 L-5,10 L-5,11 L-6,11 L-6,12 L-7,12 L-7,13 L-8,13 L-8,14 L-9,14 L-9,15 L-10,15 L-10,16 L-11,16 L-11,17 L-12,17 L-12,18 L-13,18 L-13,19 L-14,19 L-14,20 L-15,20 L-15,18 L-14,18 L-14,16 L-13,16 L-13,15 L-11,15 L-11,14 L-10,14 L-10,13 L-9,13 L-9,12 L-8,12 L-8,10 L-7,10 L-7,9 L-5,9 L-5,8 L-4,8 L-4,7 L-3,7 L-3,6 L-2,6 L-2,5 L-1,5 L-1,4 L0,4 L0,3 L1,3 L1,1 L0,1 Z " fill="#888888" transform="translate(54,62)"/>
<path d="M0,0 L1,0 L1,2 L0,2 L0,3 L-1,3 L-1,4 L-2,4 L-2,5 L-3,5 L-3,6 L-4,6 L-4,7 L-5,7 L-5,8 L-6,8 L-6,11 L-5,11 L-5,12 L-6,12 L-6,13 L-7,13 L-7,14 L-8,14 L-8,15 L-9,15 L-9,14 L-10,14 L-10,13 L-11,13 L-11,14 L-13,14 L-13,13 L-12,13 L-12,12 L-11,12 L-11,11 L-10,11 L-10,10 L-9,10 L-9,9 L-8,9 L-8,8 L-7,8 L-7,7 L-6,7 L-6,6 L-5,6 L-5,5 L-4,5 L-4,4 L-3,4 L-3,3 L-2,3 L-2,2 L-1,2 L-1,1 L0,1 Z " fill="#9D9D9E" transform="translate(47,60)"/>
<path d="M0,0 L13,0 L13,1 L14,1 L14,3 L11,3 L11,2 L1,2 L1,3 L-1,3 L-1,4 L-3,4 L-3,5 L-5,5 L-5,4 L-4,4 L-4,2 L-2,2 L-2,1 L0,1 Z " fill="#F6F6F6" transform="translate(59,5)"/>
<path d="M0,0 L11,0 L11,1 L13,1 L13,2 L14,2 L14,3 L12,3 L12,2 L4,2 L4,3 L2,3 L2,4 L0,4 L0,5 L-2,5 L-2,3 L-3,3 L-3,2 L-2,2 L-2,1 L0,1 Z " fill="#101010" transform="translate(60,10)"/>
<path d="M0,0 L2,0 L2,1 L3,1 L3,2 L5,2 L5,4 L6,4 L6,5 L7,5 L7,6 L9,6 L9,7 L10,7 L10,8 L11,8 L11,9 L10,9 L10,11 L11,11 L11,12 L10,12 L10,13 L9,13 L9,12 L6,12 L6,11 L8,11 L8,9 L7,9 L7,8 L5,8 L5,7 L4,7 L4,3 L3,3 L3,4 L2,4 L2,3 L1,3 L1,1 L0,1 Z " fill="#8E8E8E" transform="translate(36,43)"/>
<path d="M0,0 L1,0 L1,1 L2,1 L2,2 L1,2 L1,3 L0,3 L0,4 L-1,4 L-1,5 L-3,5 L-3,6 L-6,6 L-6,7 L-15,7 L-15,6 L-9,6 L-9,5 L-7,5 L-7,4 L-5,4 L-5,3 L-3,3 L-3,2 L-2,2 L-2,1 L0,1 Z " fill="#CFCFCF" transform="translate(36,73)"/>
<path d="M0,0 L8,0 L8,1 L9,1 L9,2 L8,2 L8,3 L-1,3 L-1,4 L-2,4 L-2,5 L-4,5 L-4,4 L-3,4 L-3,3 L-4,3 L-4,2 L-2,2 L-2,1 L0,1 Z " fill="#E7E7E8" transform="translate(64,12)"/>
<path d="M0,0 L1,0 L1,1 L2,1 L2,6 L0,6 L0,7 L-1,7 L-1,8 L-2,8 L-2,9 L-3,9 L-3,10 L-4,10 L-4,11 L-5,11 L-5,12 L-6,12 L-6,13 L-7,13 L-7,14 L-8,14 L-8,16 L-9,16 L-9,15 L-10,15 L-10,14 L-9,14 L-9,13 L-8,13 L-8,12 L-7,12 L-7,11 L-6,11 L-6,10 L-5,10 L-5,9 L-4,9 L-4,8 L-3,8 L-3,7 L-2,7 L-2,6 L-1,6 L-1,3 L1,3 L1,2 L0,2 Z " fill="#6A6A6A" transform="translate(26,41)"/>
<path d="M0,0 L2,0 L2,3 L1,3 L1,4 L0,4 L0,5 L-1,5 L-1,6 L-2,6 L-2,7 L-3,7 L-3,8 L-4,8 L-4,9 L-5,9 L-5,10 L-6,10 L-6,6 L-5,6 L-5,5 L-4,5 L-4,4 L-3,4 L-3,3 L-2,3 L-2,2 L-1,2 L-1,1 L0,1 Z " fill="#DDDDDD" transform="translate(21,40)"/>
<path d="M0,0 L1,0 L1,2 L0,2 L0,3 L-1,3 L-1,4 L-2,4 L-2,5 L-3,5 L-3,6 L-4,6 L-4,7 L-5,7 L-5,8 L-6,8 L-6,9 L-7,9 L-7,11 L-6,11 L-6,12 L-5,12 L-5,14 L-6,14 L-6,15 L-7,15 L-7,14 L-8,14 L-8,12 L-9,12 L-9,9 L-8,9 L-8,8 L-7,8 L-7,7 L-6,7 L-6,6 L-5,6 L-5,5 L-4,5 L-4,4 L-3,4 L-3,3 L-2,3 L-2,2 L-1,2 L-1,1 L0,1 Z " fill="#909091" transform="translate(73,34)"/>
<path d="M0,0 L6,0 L6,1 L5,1 L5,2 L4,2 L4,3 L0,3 L0,2 L-11,2 L-11,1 L0,1 Z " fill="#F7F7FB" transform="translate(32,85)"/>
<path d="M0,0 L2,0 L2,2 L3,2 L3,5 L4,5 L4,9 L3,9 L3,11 L2,11 L2,14 L1,14 L1,15 L0,15 L0,13 L1,13 L1,10 L2,10 L2,4 L1,4 L1,3 L0,3 Z " fill="#8D8D8D" transform="translate(51,41)"/>
<path d="M0,0 L1,0 L1,2 L2,2 L2,5 L1,5 L1,7 L0,7 L0,8 L-1,8 L-1,7 L-3,7 L-3,8 L-4,8 L-4,9 L-5,9 L-5,7 L-4,7 L-4,6 L-3,6 L-3,3 L-2,3 L-2,4 L-1,4 L-1,3 L0,3 Z " fill="#D2D2D2" transform="translate(79,26)"/>
<path d="M0,0 L8,0 L8,1 L5,1 L5,2 L0,2 L0,4 L-2,4 L-2,5 L-3,5 L-3,6 L-5,6 L-5,5 L-4,5 L-4,4 L-3,4 L-3,3 L-4,3 L-4,2 L-2,2 L-2,1 L0,1 Z " fill="#696969" transform="translate(60,7)"/>
<path d="M0,0 L2,0 L2,1 L1,1 L1,2 L0,2 L0,3 L-1,3 L-1,4 L-2,4 L-2,5 L-3,5 L-3,6 L-4,6 L-4,7 L-5,7 L-5,8 L-6,8 L-6,9 L-7,9 L-7,10 L-8,10 L-8,11 L-9,11 L-9,10 L-11,10 L-11,9 L-9,9 L-9,8 L-7,8 L-7,7 L-6,7 L-6,6 L-5,6 L-5,5 L-4,5 L-4,4 L-3,4 L-3,3 L-2,3 L-2,2 L-1,2 L-1,1 L0,1 Z " fill="#878787" transform="translate(81,38)"/>
<path d="M0,0 L1,0 L1,1 L3,1 L3,3 L2,3 L2,5 L1,5 L1,7 L-2,7 L-2,6 L-3,6 L-3,5 L-2,5 L-2,3 L-1,3 L-1,1 L0,1 Z " fill="#1D1D1D" transform="translate(83,31)"/>
<path d="M0,0 L1,0 L1,3 L0,3 L0,5 L-1,5 L-1,8 L-2,8 L-2,14 L-3,14 L-3,4 L-2,4 L-2,2 L-1,2 L-1,1 L0,1 Z " fill="#F8F8F8" transform="translate(36,27)"/>
<path d="M0,0 L1,0 L1,2 L0,2 L0,3 L-1,3 L-1,4 L-2,4 L-2,5 L-4,5 L-4,6 L-5,6 L-5,8 L-7,8 L-7,6 L-6,6 L-6,4 L-5,4 L-5,3 L-4,3 L-4,2 L-1,2 L-1,1 L0,1 Z " fill="#BCBCBC" transform="translate(45,72)"/>
<path d="M0,0 L1,0 L1,1 L3,1 L3,3 L2,3 L2,5 L1,5 L1,7 L-1,7 L-1,5 L-2,5 L-2,3 L-1,3 L-1,1 L0,1 Z " fill="#1B1B1B" transform="translate(57,57)"/>
<path d="M0,0 L1,0 L1,5 L-3,5 L-3,6 L-2,6 L-2,7 L-3,7 L-3,8 L-4,8 L-4,7 L-5,7 L-5,6 L-4,6 L-4,4 L-3,4 L-3,3 L-2,3 L-2,2 L-1,2 L-1,1 L0,1 Z " fill="#E8E8E9" transform="translate(48,25)"/>
<path d="M0,0 L1,0 L1,1 L2,1 L2,4 L1,4 L1,6 L-3,6 L-3,5 L-4,5 L-4,4 L-5,4 L-5,3 L-1,3 L-1,4 L0,4 L0,3 L1,3 L1,2 L0,2 Z " fill="#323232" transform="translate(46,52)"/>
<path d="M0,0 L2,0 L2,1 L3,1 L3,3 L2,3 L2,5 L1,5 L1,6 L0,6 L0,5 L-1,5 L-1,4 L-2,4 L-2,2 L-1,2 L-1,1 L0,1 Z " fill="#1F1F1F" transform="translate(40,29)"/>
<path d="M0,0 L1,0 L1,5 L0,5 L0,6 L-1,6 L-1,11 L-2,11 L-2,3 L-1,3 L-1,1 L0,1 Z " fill="#5A5A5A" transform="translate(37,29)"/>
<path d="M0,0 L1,0 L1,1 L2,1 L2,2 L3,2 L3,3 L2,3 L2,5 L1,5 L1,4 L-1,4 L-1,7 L-2,7 L-2,2 L-1,2 L-1,1 L0,1 Z " fill="#AEAEAE" transform="translate(12,59)"/>
<path d="M0,0 L2,0 L2,1 L3,1 L3,3 L2,3 L2,5 L1,5 L1,6 L0,6 L0,5 L-1,5 L-1,1 L0,1 Z " fill="#1D1D1D" transform="translate(14,55)"/>
<path d="M0,0 L2,0 L2,2 L1,2 L1,3 L0,3 L0,4 L-1,4 L-1,5 L-2,5 L-2,6 L-3,6 L-3,7 L-4,7 L-4,4 L-3,4 L-3,3 L-2,3 L-2,2 L-1,2 L-1,1 L0,1 Z " fill="#F3F3F3" transform="translate(76,33)"/>
<path d="M0,0 L1,0 L1,1 L2,1 L2,2 L4,2 L4,3 L5,3 L5,4 L6,4 L6,5 L4,5 L4,6 L3,6 L3,5 L2,5 L2,4 L1,4 L1,3 L-1,3 L-1,2 L0,2 Z " fill="#E3E3E3" transform="translate(73,6)"/>
</svg>
